<svg width="24" height="23" viewBox="0 0 24 23" fill="none" xmlns="http://www.w3.org/2000/svg">
<path d="M7.25049 18.2705C7.71197 18.2705 8.15454 18.4538 8.48085 18.7801C8.80717 19.1064 8.99049 19.549 8.99049 20.0105C8.99049 20.472 8.80717 20.9145 8.48085 21.2409C8.15454 21.5672 7.71197 21.7505 7.25049 21.7505C6.78902 21.7505 6.34644 21.5672 6.02013 21.2409C5.69382 20.9145 5.5105 20.472 5.5105 20.0105C5.5105 19.549 5.69382 19.1064 6.02013 18.7801C6.34644 18.4538 6.78902 18.2705 7.25049 18.2705ZM17.6905 18.2705C18.1519 18.2705 18.5945 18.4538 18.9208 18.7801C19.2471 19.1064 19.4304 19.549 19.4304 20.0105C19.4304 20.472 19.2471 20.9145 18.9208 21.2409C18.5945 21.5672 18.1519 21.7505 17.6905 21.7505C17.229 21.7505 16.7864 21.5672 16.4601 21.2409C16.1338 20.9145 15.9505 20.472 15.9505 20.0105C15.9505 19.549 16.1338 19.1064 16.4601 18.7801C16.7864 18.4538 17.229 18.2705 17.6905 18.2705Z" stroke="#F1EEE5" stroke-width="1.5"/>
<path d="M1.15943 0.0493118C0.941611 -0.0272931 0.702285 -0.0142334 0.494098 0.085618C0.285911 0.18547 0.125917 0.363933 0.0493117 0.58175C-0.0272931 0.799566 -0.0142334 1.03889 0.0856181 1.24708C0.18547 1.45527 0.363934 1.61526 0.58175 1.69187L1.15943 0.0493118ZM22.5138 8.85484L23.3652 9.03L23.3664 9.02536L22.5138 8.85484ZM5.17185 8.71216V5.55465H3.43186V8.71216H5.17185ZM1.46219 0.156031L1.15943 0.0493118L0.58175 1.69187L0.884509 1.79743L1.46219 0.156031ZM11.2386 16.2405H17.3889V14.5005H11.2386V16.2405ZM5.17185 5.55465C5.17185 4.73453 5.17301 4.05014 5.11385 3.4945C5.05005 2.91798 4.91665 2.3925 4.58953 1.91458L3.1523 2.89594C3.2567 3.04906 3.3379 3.26018 3.38314 3.68126C3.4307 4.12206 3.43186 4.69625 3.43186 5.55465H5.17185ZM0.884509 1.79743C1.65939 2.07002 2.16862 2.25098 2.5433 2.43658C2.89478 2.60826 3.05022 2.74746 3.1523 2.8971L4.58953 1.91458C4.2601 1.43203 3.82046 1.12347 3.3089 0.871749C2.8217 0.632789 2.19762 0.41471 1.46219 0.156031L0.884509 1.79743ZM3.43186 8.71216C3.43186 10.3976 3.4481 11.6121 3.60586 12.5401C3.77638 13.5308 4.11626 14.2407 4.74845 14.9089L6.01169 13.7117C5.64049 13.3197 5.43981 12.9369 5.32149 12.2467C5.19389 11.4927 5.17185 10.4394 5.17185 8.71216H3.43186ZM11.2386 14.5005C9.59492 14.5005 8.45464 14.4982 7.59508 14.3764C6.76569 14.2593 6.32837 14.0458 6.01169 13.7117L4.74845 14.9089C5.43749 15.6362 6.31097 15.9529 7.35032 16.099C8.35952 16.2429 9.64828 16.2405 11.2386 16.2405V14.5005ZM4.30186 5.35977H18.3726V3.61978H4.30302L4.30186 5.35977ZM21.6612 8.67852L21.0812 11.4915L22.7864 11.8418L23.3652 9.03L21.6612 8.67852ZM18.3749 5.35977C19.3679 5.35977 20.2425 5.36093 20.9327 5.43749C21.2749 5.47693 21.5324 5.53029 21.7122 5.59293C21.899 5.65905 21.9291 5.70893 21.9141 5.68921L23.2933 4.62897C23.0207 4.27402 22.6379 4.07334 22.2887 3.95154C21.9112 3.82741 21.5209 3.7457 21.1253 3.70794C20.3191 3.61862 19.3354 3.61978 18.3749 3.61978V5.35977ZM23.3664 9.02536C23.5636 8.04168 23.7306 7.21577 23.7712 6.55457C23.8141 5.87481 23.7364 5.20433 23.2933 4.62897L21.9141 5.68921C21.986 5.78317 22.0649 5.95137 22.0347 6.44785C22.0034 6.96289 21.8677 7.65076 21.6612 8.68432L23.3664 9.02536ZM17.3889 16.2405C18.2728 16.2405 19.0152 16.2417 19.6138 16.1686C20.2344 16.0932 20.8016 15.9262 21.2958 15.5237L20.1961 14.1746C20.0511 14.2929 19.8458 14.388 19.4015 14.4414C18.934 14.4994 18.3169 14.5005 17.3889 14.5005V16.2405ZM21.0835 11.4915C20.8956 12.3998 20.7703 13.003 20.6195 13.4496C20.4768 13.8741 20.3411 14.0563 20.1961 14.1746L21.2958 15.5237C21.7911 15.12 22.0683 14.5991 22.2679 14.0052C22.4604 13.4345 22.6089 12.7083 22.7875 11.843L21.0835 11.4915Z" fill="#F1EEE5"/>
<path d="M13.6305 12.4705V10.1505M13.6305 10.1505V7.83054M13.6305 10.1505H15.9505M13.6305 10.1505H11.3105" stroke="#F1EEE5" stroke-width="1.5" stroke-linecap="round"/>
</svg>
