<svg width="24" height="23" viewBox="0 0 24 23" fill="none" xmlns="http://www.w3.org/2000/svg">
<path d="M7.31716 18.48C7.78288 18.48 8.22952 18.6654 8.55882 18.9955C8.88813 19.3255 9.07314 19.7732 9.07314 20.2399C9.07314 20.7067 8.88813 21.1544 8.55882 21.4844C8.22952 21.8145 7.78288 21.9999 7.31716 21.9999C6.85145 21.9999 6.40481 21.8145 6.0755 21.4844C5.74619 21.1544 5.56119 20.7067 5.56119 20.2399C5.56119 19.7732 5.74619 19.3255 6.0755 18.9955C6.40481 18.6654 6.85145 18.48 7.31716 18.48ZM17.853 18.48C18.3187 18.48 18.7654 18.6654 19.0947 18.9955C19.424 19.3255 19.609 19.7732 19.609 20.2399C19.609 20.7067 19.424 21.1544 19.0947 21.4844C18.7654 21.8145 18.3187 21.9999 17.853 21.9999C17.3873 21.9999 16.9407 21.8145 16.6113 21.4844C16.282 21.1544 16.097 20.7067 16.097 20.2399C16.097 19.7732 16.282 19.3255 16.6113 18.9955C16.9407 18.6654 17.3873 18.48 17.853 18.48Z" stroke="black" stroke-width="1.5"/>
<path d="M1.17008 0.0498774C0.95026 -0.0276062 0.708735 -0.0143967 0.498636 0.0866001C0.288537 0.187597 0.127073 0.368108 0.0497646 0.588423C-0.0275438 0.808737 -0.0143641 1.05081 0.0864045 1.26138C0.187173 1.47196 0.367276 1.63379 0.587093 1.71127L1.17008 0.0498774ZM22.7206 8.95641L23.5798 9.13358L23.581 9.12888L22.7206 8.95641ZM5.21935 8.81209V5.61837H3.46338V8.81209H5.21935ZM1.47562 0.157821L1.17008 0.0498774L0.587093 1.71127L0.892632 1.81804L1.47562 0.157821ZM11.3419 16.4268H17.5486V14.6669H11.3419V16.4268ZM5.21935 5.61837C5.21935 4.78884 5.22052 4.09659 5.16082 3.53458C5.09644 2.95145 4.96181 2.41995 4.63169 1.93655L3.18125 2.92916C3.28661 3.08403 3.36856 3.29758 3.41421 3.72348C3.46221 4.16934 3.46338 4.75012 3.46338 5.61837H5.21935ZM0.892632 1.81804C1.67463 2.09377 2.18854 2.2768 2.56666 2.46453C2.92137 2.63818 3.07824 2.77898 3.18125 2.93033L4.63169 1.93655C4.29922 1.44845 3.85555 1.13635 3.33929 0.881748C2.84762 0.640048 2.21781 0.419467 1.47562 0.157821L0.892632 1.81804ZM3.46338 8.81209C3.46338 10.5169 3.47977 11.7453 3.63898 12.684C3.81106 13.686 4.15406 14.404 4.79207 15.0799L6.0669 13.869C5.6923 13.4724 5.48977 13.0853 5.37037 12.3871C5.2416 11.6245 5.21935 10.5591 5.21935 8.81209H3.46338ZM11.3419 14.6669C9.68304 14.6669 8.53229 14.6645 7.66484 14.5413C6.82783 14.4228 6.38649 14.2069 6.0669 13.869L4.79207 15.0799C5.48743 15.8155 6.36893 16.1358 7.41783 16.2837C8.4363 16.4292 9.73689 16.4268 11.3419 16.4268V14.6669ZM4.34137 5.42125H18.5413V3.6613H4.34254L4.34137 5.42125ZM21.8601 8.77807L21.2748 11.6233L22.9957 11.9777L23.5798 9.13358L21.8601 8.77807ZM18.5437 5.42125C19.5458 5.42125 20.4284 5.42242 21.125 5.49986C21.4703 5.53975 21.7302 5.59373 21.9116 5.65708C22.1001 5.72396 22.1306 5.77442 22.1153 5.75447L23.5072 4.68207C23.2321 4.32304 22.8458 4.12006 22.4935 3.99686C22.1124 3.87131 21.7186 3.78867 21.3193 3.75047C20.5057 3.66013 19.513 3.6613 18.5437 3.6613V5.42125ZM23.581 9.12888C23.78 8.13392 23.9486 7.29853 23.9896 6.62975C24.0329 5.9422 23.9544 5.26403 23.5072 4.68207L22.1153 5.75447C22.1879 5.84951 22.2675 6.01964 22.2371 6.52181C22.2055 7.04275 22.0685 7.73852 21.8601 8.78393L23.581 9.12888ZM17.5486 16.4268C18.4407 16.4268 19.1899 16.428 19.7939 16.3541C20.4202 16.2778 20.9927 16.1089 21.4914 15.7017L20.3816 14.3372C20.2353 14.4568 20.0281 14.5531 19.5797 14.607C19.1079 14.6657 18.4852 14.6669 17.5486 14.6669V16.4268ZM21.2772 11.6233C21.0875 12.542 20.9611 13.1521 20.8089 13.6039C20.6649 14.0333 20.5279 14.2175 20.3816 14.3372L21.4914 15.7017C21.9913 15.2934 22.271 14.7666 22.4724 14.1659C22.6667 13.5886 22.8166 12.8541 22.9968 11.9788L21.2772 11.6233Z" fill="black"/>
</svg>
