<svg width="37" height="37" viewBox="0 0 37 37" fill="none" xmlns="http://www.w3.org/2000/svg">
<path fill-rule="evenodd" clip-rule="evenodd" d="M18.5 37C28.7173 37 37 28.7173 37 18.5C37 8.28271 28.7173 0 18.5 0C8.28275 0 0 8.28271 0 18.5C0 28.7173 8.28275 37 18.5 37ZM31 13.25C31 9.25 27.75 6 23.75 6H13.25C11.3272 6 9.48312 6.76385 8.12347 8.12347C6.76382 9.48309 6 11.3272 6 13.25V23.75C6 27.75 9.25 31 13.25 31H23.75C25.6728 31 27.5169 30.2361 28.8765 28.8765C30.2362 27.5169 31 25.6728 31 23.75V13.25ZM9.81802 9.81799C10.6619 8.97412 11.8065 8.5 13 8.5H24C26.4875 8.5 28.5 10.5125 28.5 13V24C28.5 25.1935 28.0259 26.3381 27.182 27.182C26.3381 28.0259 25.1935 28.5 24 28.5H13C10.5125 28.5 8.5 26.4875 8.5 24V13C8.5 11.8065 8.97412 10.6619 9.81802 9.81799ZM26.1674 10.8326C25.8743 10.5396 25.4769 10.375 25.0625 10.375C24.6481 10.375 24.2507 10.5396 23.9576 10.8326C23.6646 11.1257 23.5 11.5231 23.5 11.9375C23.5 12.3519 23.6646 12.7493 23.9576 13.0424C24.2507 13.3354 24.6481 13.5 25.0625 13.5C25.4769 13.5 25.8743 13.3354 26.1674 13.0424C26.4604 12.7493 26.625 12.3519 26.625 11.9375C26.625 11.5231 26.4604 11.1257 26.1674 10.8326ZM22.9194 14.0806C21.7473 12.9085 20.1576 12.25 18.5 12.25C16.8424 12.25 15.2527 12.9085 14.0806 14.0806C12.9085 15.2527 12.25 16.8424 12.25 18.5C12.25 20.1576 12.9085 21.7473 14.0806 22.9194C15.2527 24.0915 16.8424 24.75 18.5 24.75C20.1576 24.75 21.7473 24.0915 22.9194 22.9194C24.0915 21.7473 24.75 20.1576 24.75 18.5C24.75 16.8424 24.0915 15.2527 22.9194 14.0806ZM15.8484 15.8483C16.5516 15.1451 17.5054 14.75 18.5 14.75C19.4946 14.75 20.4484 15.1451 21.1516 15.8483C21.8549 16.5516 22.25 17.5054 22.25 18.5C22.25 19.4946 21.8549 20.4484 21.1516 21.1517C20.4484 21.8549 19.4946 22.25 18.5 22.25C17.5054 22.25 16.5516 21.8549 15.8484 21.1517C15.1451 20.4484 14.75 19.4946 14.75 18.5C14.75 17.5054 15.1451 16.5516 15.8484 15.8483Z" fill="black"/>
</svg>
