<svg width="457" height="393" viewBox="0 0 457 393" fill="none" xmlns="http://www.w3.org/2000/svg">
<path d="M58.3591 346.352V387.576C60.6449 388.01 62.002 388.299 62.4306 388.444C63.1926 388.588 63.5735 389.022 63.5735 389.745V392.928H46.4301V389.745C46.4301 389.022 46.7873 388.588 47.5016 388.444L52.2874 387.576V354.814C52.2874 353.319 52.3351 352.186 52.4303 351.414L34.8583 383.815C34.2868 384.924 33.4773 385.478 32.4296 385.478H31.4296C30.2867 385.478 29.4295 384.924 28.8581 383.815L11.0718 351.487C11.2147 352.692 11.2861 353.777 11.2861 354.741V387.576L16.1434 388.444C16.7625 388.588 17.072 389.022 17.072 389.745V392.928H0V389.745C0 389.022 0.380965 388.588 1.14289 388.444L5.14303 387.576V346.352C2.95248 345.918 1.6191 345.629 1.14289 345.484C0.380965 345.339 0 344.905 0 344.182V341H10.2861C10.9527 341 11.4289 341.072 11.7147 341.217C12.1433 341.41 12.4528 341.723 12.6433 342.157L30.2867 374.124C30.7153 374.895 31.2629 376.149 31.9296 377.885C32.3106 376.776 32.8582 375.498 33.5725 374.051L50.8588 342.157C51.0493 341.771 51.3827 341.458 51.8589 341.217C52.1446 341.072 52.6208 341 53.2875 341H63.5735V344.182C63.5735 344.905 63.1926 345.339 62.4306 345.484L58.3591 346.352Z" fill="black"/>
<path d="M114.44 344.327C114.44 345.05 114.154 345.484 113.582 345.629L109.868 346.497L94.2247 372.388V387.72C95.4628 388.058 96.82 388.347 98.2962 388.588C99.0105 388.733 99.3677 389.167 99.3677 389.89V393H82.1528V389.89C82.1528 389.167 82.5338 388.733 83.2957 388.588L87.2958 387.72V372.388L71.7239 346.497L68.1524 345.629C67.4857 345.484 67.1523 345.026 67.1523 344.255V341.145H84.2957V344.255C84.2957 345.026 83.9386 345.484 83.2243 345.629C80.7004 346.159 79.3432 346.424 79.1527 346.424L88.7245 362.914C89.6769 364.65 90.3674 366.168 90.796 367.47C91.3674 365.734 92.0579 364.191 92.8675 362.841L102.439 346.352C102.201 346.352 100.82 346.087 98.2962 345.556C97.6295 345.412 97.2962 344.954 97.2962 344.182V341.145H114.44V344.327Z" fill="black"/>
<path d="M191.943 346.352V387.576C194.229 388.01 195.586 388.299 196.015 388.444C196.777 388.588 197.158 389.022 197.158 389.745V392.928H180.014V389.745C180.014 389.022 180.371 388.588 181.086 388.444L185.872 387.576V354.814C185.872 353.319 185.919 352.186 186.015 351.414L168.443 383.815C167.871 384.924 167.062 385.478 166.014 385.478H165.014C163.871 385.478 163.014 384.924 162.442 383.815L144.656 351.487C144.799 352.692 144.87 353.777 144.87 354.741V387.576L149.728 388.444C150.347 388.588 150.656 389.022 150.656 389.745V392.928H133.584V389.745C133.584 389.022 133.965 388.588 134.727 388.444L138.727 387.576V346.352C136.537 345.918 135.203 345.629 134.727 345.484C133.965 345.339 133.584 344.905 133.584 344.182V341H143.87C144.537 341 145.013 341.072 145.299 341.217C145.727 341.41 146.037 341.723 146.227 342.157L163.871 374.124C164.299 374.895 164.847 376.149 165.514 377.885C165.895 376.776 166.442 375.498 167.157 374.051L184.443 342.157C184.634 341.771 184.967 341.458 185.443 341.217C185.729 341.072 186.205 341 186.872 341H197.158V344.182C197.158 344.905 196.777 345.339 196.015 345.484L191.943 346.352Z" fill="black"/>
<path d="M213.737 387.648L218.094 388.516C218.666 388.661 218.951 389.095 218.951 389.818V392.928H201.737V389.818C201.737 389.046 202.07 388.588 202.737 388.444L206.88 387.648V346.352L202.594 345.484C202.022 345.339 201.737 344.905 201.737 344.182V341.145H218.951V344.182C218.951 344.954 218.594 345.412 217.88 345.556L213.737 346.352V387.648Z" fill="black"/>
<path d="M275.36 344.327C275.36 345.05 274.979 345.484 274.217 345.629L270.145 346.497V393H266.645C265.693 393 264.883 392.59 264.216 391.771L234.572 352.716C234.668 353.536 234.715 354.645 234.715 356.043V387.72C236.049 387.913 237.644 388.203 239.501 388.588C240.168 388.733 240.501 389.167 240.501 389.89V393H223.501V389.89C223.501 389.167 223.858 388.733 224.572 388.588L228.644 387.72V346.497C226.358 346.063 225.001 345.773 224.572 345.629C223.858 345.484 223.501 345.026 223.501 344.255V341.145H232.215C232.834 341.145 233.287 341.217 233.572 341.362C233.763 341.458 234.12 341.771 234.644 342.302L264.216 381.356C264.121 380.681 264.073 379.524 264.073 377.885V346.497C262.692 346.304 261.597 346.135 260.788 345.99C259.978 345.797 259.502 345.677 259.359 345.629C258.597 345.484 258.216 345.05 258.216 344.327V341.145H275.36V344.327Z" fill="black"/>
<path d="M290.958 387.648L295.315 388.516C295.886 388.661 296.172 389.095 296.172 389.818V392.928H278.957V389.818C278.957 389.046 279.291 388.588 279.957 388.444L284.1 387.648V346.352L279.814 345.484C279.243 345.339 278.957 344.905 278.957 344.182V341.145H296.172V344.182C296.172 344.954 295.815 345.412 295.101 345.556L290.958 346.352V387.648Z" fill="black"/>
<path d="M316.068 392.928V389.818C316.068 389.48 316.163 389.191 316.354 388.95C316.544 388.661 316.806 388.492 317.139 388.444L321.211 387.648V346.352L317.139 345.556C316.806 345.508 316.544 345.363 316.354 345.122C316.163 344.833 316.068 344.52 316.068 344.182V341.145H333.211V344.182C333.211 344.52 333.116 344.833 332.926 345.122C332.735 345.363 332.473 345.508 332.14 345.556L328.068 346.352V386.997H346.497C346.64 384.779 346.783 383.405 346.926 382.875C346.974 382.537 347.14 382.248 347.426 382.007C347.712 381.766 348.045 381.645 348.426 381.645H351.926V392.928H316.068Z" fill="black"/>
<path d="M368.806 387.648L373.164 388.516C373.735 388.661 374.021 389.095 374.021 389.818V392.928H356.806V389.818C356.806 389.046 357.139 388.588 357.806 388.444L361.949 387.648V346.352L357.663 345.484C357.092 345.339 356.806 344.905 356.806 344.182V341.145H374.021V344.182C374.021 344.954 373.664 345.412 372.949 345.556L368.806 346.352V387.648Z" fill="black"/>
<path d="M416.5 353.656H413C412.19 353.656 411.714 353.247 411.571 352.427C411.571 352.282 411.5 351.728 411.357 350.764C411.262 349.751 411.142 348.449 411 346.858H390.713V365.011H410.142V370.652H390.713V387.72L394.713 388.516C395.475 388.661 395.856 389.119 395.856 389.89V392.928H378.57V389.89C378.57 389.119 378.927 388.661 379.641 388.516L383.713 387.72V346.424C381.427 345.99 380.07 345.701 379.641 345.556C378.927 345.412 378.57 344.954 378.57 344.182V341.145H416.5V353.656Z" fill="black"/>
<path d="M457 353.656H453.571C452.714 353.656 452.214 353.247 452.071 352.427L451.571 346.858H432.428V364.071H451.286V369.567H432.428V387.287H451.571L452 382.079C452.143 381.308 452.667 380.922 453.571 380.922H457V392.928H420.285V389.89C420.285 389.119 420.642 388.661 421.356 388.516L425.428 387.72V346.424C423.142 345.99 421.785 345.701 421.356 345.556C420.642 345.412 420.285 344.954 420.285 344.182V341.145H457V353.656Z" fill="black"/>
<path fill-rule="evenodd" clip-rule="evenodd" d="M365.921 308L365.711 307.825C367.841 305.27 369.897 302.66 371.875 300C390.166 275.406 401.882 246.482 405.823 215.974C410.191 182.167 404.831 147.815 390.372 116.945C375.913 86.0751 352.953 59.9668 324.184 41.6805C295.416 23.3941 262.03 13.6875 227.942 13.6985C193.854 13.7096 160.475 23.4377 131.718 41.7427C102.961 60.0477 80.0183 86.1709 65.5789 117.05C51.1394 147.929 45.8017 182.285 50.1914 216.089C54.1477 246.556 65.8574 275.437 84.1249 300C86.1263 302.691 88.2063 305.33 90.3635 307.914L90.2605 308H365.921ZM94.2271 300C88.0534 292.282 82.5833 284.074 77.8605 275.476H130.138C130.205 275.705 130.296 275.931 130.413 276.15L143.161 300H94.2271ZM163.628 268.476H74.2225C66.3722 252.482 61.0302 235.289 58.4596 217.5H129.5C131.433 217.5 133 215.933 133 214V196H165.128V266.976C165.128 267.805 164.457 268.476 163.628 268.476ZM72.8257 120.439C62.7353 142.017 57.2971 165.373 56.7451 189L68 189C68 183.025 70.8068 177.579 75.3039 173.763C78.8787 170.73 83.3371 168.858 88 168.233V149.017C84.2234 147.761 81.5 144.198 81.5 140C81.5 135.113 85.1899 131.088 89.9357 130.559L114.305 104.757C115.4 103.176 116.68 101.734 118.097 100.46C126.684 92.739 140.977 90.7353 151.509 101.559C152.852 102.94 152.827 105.146 151.453 106.496L149.393 108.521C149.717 108.558 150.042 108.641 150.358 108.774L159.858 112.774C161.64 113.524 162.476 115.577 161.726 117.358C160.976 119.14 158.923 119.976 157.142 119.226L147.642 115.226C146.413 114.708 145.634 113.572 145.515 112.332L138.666 119.063C139.284 119.183 139.877 119.47 140.374 119.928L146.874 125.928C148.294 127.239 148.383 129.454 147.072 130.874C145.761 132.294 143.546 132.383 142.126 131.072L135.626 125.072C135.04 124.531 134.68 123.835 134.553 123.106L128.934 128.627C129.93 128.903 130.794 129.616 131.226 130.642L135.226 140.142C135.976 141.923 135.14 143.976 133.358 144.726C131.577 145.476 129.524 144.64 128.774 142.858L124.774 133.358C124.707 133.199 124.653 133.038 124.611 132.876L122.454 134.996C121.769 135.669 120.839 136.031 119.88 135.998C118.921 135.965 118.018 135.539 117.381 134.821C112.915 129.783 110.666 124.418 110.279 119.214L97.3343 132.92C99.2773 134.659 100.5 137.187 100.5 140C100.5 143.818 98.248 147.109 95 148.619V168.233C99.6629 168.858 104.121 170.73 107.696 173.763C112.193 177.579 115 183.025 115 189L168.628 189C170.561 189 172.128 190.567 172.128 192.5V266.976C172.128 271.671 168.323 275.476 163.628 275.476H152.5V300H187.93L202.267 255.198C194.461 251.819 189 244.047 189 235C189 222.85 198.85 213 211 213H246.865L227.112 136.879C226.84 135.831 227.069 134.715 227.732 133.858C228.395 133.002 229.417 132.5 230.5 132.5H255C256.374 132.5 257.621 133.304 258.188 134.555C260.048 138.66 264.082 140.873 268.213 140.917C272.302 140.96 276.098 138.89 277.744 134.716C278.271 133.379 279.563 132.5 281 132.5H307C308.093 132.5 309.123 133.01 309.785 133.88C310.447 134.749 310.665 135.878 310.374 136.931L288.166 217.373C293.529 221.385 297 227.787 297 235C297 244.277 291.257 252.214 283.133 255.448L297.39 300H361.773C381.361 275.511 393.866 246.094 397.889 214.949C400.243 196.735 399.64 178.355 396.19 160.5H324C319.306 160.5 315.5 156.694 315.5 152V46H315.95C289.379 30.1022 258.966 21.6885 227.945 21.6985C195.377 21.7091 163.487 31.0032 136.014 48.4915C108.54 65.9797 86.6209 90.9373 72.8257 120.439ZM126 196V210.5H59V196H86.6261C85.9174 196.985 85.5 198.194 85.5 199.5C85.5 202.814 88.1863 205.5 91.5 205.5C94.8137 205.5 97.5 202.814 97.5 199.5C97.5 198.194 97.0826 196.985 96.3739 196H126ZM108 189C108 186.521 107.225 184.11 105.789 182C105.075 180.949 104.196 179.973 103.167 179.1C100.073 176.475 95.8761 175 91.5 175C87.1239 175 82.9271 176.475 79.8327 179.1C78.8042 179.973 77.9254 180.949 77.2105 182C75.7748 184.11 75 186.521 75 189H108ZM195.28 300H200.57L214.33 257H211C210.349 257 209.704 256.972 209.067 256.916L195.28 300ZM207.92 300H277.4L263.64 257H221.68L207.92 300ZM284.75 300H290.04L276.268 256.964C275.849 256.988 275.426 257 275 257H270.99L284.75 300ZM322.5 152V50.1226C324.4 51.3792 326.272 52.672 328.116 54H327.5V145.5C327.5 147.433 329.067 149 331 149H393.554C393.952 150.495 394.329 151.995 394.685 153.5H324C323.172 153.5 322.5 152.828 322.5 152ZM383.127 120.338C371.858 96.2784 355.183 75.2459 334.5 58.8285V142H391.534C389.233 134.624 386.429 127.386 383.127 120.338ZM302.403 139.5L281.814 214.076C279.669 213.377 277.379 213 275 213H254.097L235.024 139.5H252.908C256.34 145.036 262.326 147.855 268.139 147.917C273.972 147.978 279.944 145.255 283.201 139.5H302.403ZM211 220C202.716 220 196 226.716 196 235C196 243.284 202.716 250 211 250H275C283.284 250 290 243.284 290 235C290 226.716 283.284 220 275 220H211ZM137.99 275.476L145.5 289.527V275.476H137.99ZM91.5 200.5C92.0523 200.5 92.5 200.052 92.5 199.5C92.5 198.948 92.0523 198.5 91.5 198.5C90.9477 198.5 90.5 198.948 90.5 199.5C90.5 200.052 90.9477 200.5 91.5 200.5ZM120.355 127.244L143.848 104.156C136.799 99.1065 128.348 100.656 122.778 105.665C119.644 108.483 117.584 112.288 117.263 116.434C117.011 119.697 117.818 123.399 120.355 127.244ZM91 137.5C89.6193 137.5 88.5 138.619 88.5 140C88.5 141.381 89.6193 142.5 91 142.5C92.3807 142.5 93.5 141.381 93.5 140C93.5 138.619 92.3807 137.5 91 137.5Z" fill="black"/>
<path fill-rule="evenodd" clip-rule="evenodd" d="M388.624 300C405.022 275.384 415.596 247.246 419.409 217.73C424.111 181.339 418.341 144.363 402.777 111.134C387.213 77.9061 362.499 49.8032 331.533 30.1197C300.566 10.4363 264.63 -0.0118598 227.938 1.01026e-05C191.245 0.01188 155.316 10.4833 124.362 30.1867C93.4082 49.8902 68.7126 78.0092 53.17 111.248C37.6274 144.486 31.8818 181.466 36.6069 217.853C40.4341 247.326 51.0019 275.42 67.3761 300H15C8.37258 300 3 303.873 3 310.5C3 317.127 8.37256 321 15 321H442C448.627 321 454 317.127 454 310.5C454 303.873 448.627 300 442 300H388.624ZM15 313C12.7909 313 11 312.709 11 310.5C11 308.291 12.7909 308 15 308H83.0862C82.3805 307.111 81.6833 306.215 80.9948 305.314C79.658 303.564 78.3538 301.793 77.0827 300C59.6475 275.409 48.4411 246.863 44.5403 216.823C40.0111 181.944 45.5185 146.497 60.4168 114.636C75.3152 82.7756 98.9872 55.8222 128.658 36.9355C158.329 18.0487 192.768 8.01139 227.94 8.00001C263.112 7.98863 297.558 18.0037 327.241 36.8712C356.924 55.7388 380.613 82.6769 395.532 114.528C410.451 146.379 415.982 181.823 411.475 216.704C407.589 246.787 396.376 275.376 378.917 300C377.669 301.76 376.389 303.5 375.078 305.219C374.366 306.152 373.644 307.079 372.914 308H442C444.209 308 446 308.291 446 310.5C446 312.709 444.209 313 442 313H15Z" fill="black"/>
</svg>
