<svg width="100" height="84" viewBox="0 0 100 84" fill="none" xmlns="http://www.w3.org/2000/svg">
<path fill-rule="evenodd" clip-rule="evenodd" d="M80.4702 67.3936L80.4237 67.3552C80.8961 66.7961 81.3518 66.2251 81.7905 65.6431C85.8462 60.2616 88.4439 53.9328 89.3178 47.2574C90.2863 39.86 89.0979 32.3434 85.8918 25.5888C82.6857 18.8341 77.5949 13.1214 71.216 9.12011C64.8372 5.11887 57.4347 2.99497 49.8763 2.99738C42.3179 2.99979 34.9168 5.12842 28.5405 9.13373C22.1643 13.1391 17.0772 18.8551 13.8756 25.6118C10.6739 32.3684 9.4904 39.8858 10.4637 47.2826C11.3409 53.949 13.9373 60.2685 17.9878 65.6431C18.4315 66.2319 18.8928 66.8094 19.3711 67.3747L19.3482 67.3936H80.4702ZM20.2277 65.6431C18.8588 63.9542 17.646 62.1583 16.5988 60.2771H28.1903C28.2051 60.3272 28.2253 60.3766 28.2513 60.4244L31.0778 65.6431H20.2277ZM35.616 58.7454H15.7921C14.0515 55.2456 12.867 51.4837 12.297 47.5912H28.0488C28.4774 47.5912 28.8248 47.2484 28.8248 46.8254V42.8868H35.9486V58.4172C35.9486 58.5984 35.7997 58.7454 35.616 58.7454ZM15.4824 26.3532C13.2451 31.0749 12.0393 36.1853 11.9169 41.3551L14.4124 41.3551C14.4124 40.0476 15.0348 38.856 16.0319 38.0211C16.8245 37.3574 17.8131 36.9478 18.847 36.8112V32.6064C18.0096 32.3315 17.4058 31.5521 17.4058 30.6334C17.4058 29.5641 18.2239 28.6834 19.2762 28.5676L24.6795 22.9218C24.9225 22.576 25.2062 22.2605 25.5205 21.9817C27.4244 20.2923 30.5935 19.8538 32.9287 22.2222C33.2266 22.5243 33.2211 23.0071 32.9165 23.3025L32.4596 23.7456C32.5316 23.7536 32.6036 23.7718 32.6737 23.8009L34.7801 24.6762C35.1751 24.8403 35.3605 25.2894 35.1942 25.6792C35.0279 26.069 34.5728 26.2519 34.1778 26.0878L32.0714 25.2126C31.799 25.0994 31.6262 24.8507 31.5998 24.5794L30.0811 26.0523C30.2181 26.0784 30.3498 26.1412 30.4599 26.2415L31.9011 27.5544C32.216 27.8413 32.2357 28.3258 31.945 28.6366C31.6543 28.9474 31.1633 28.9667 30.8483 28.6799L29.4071 27.367C29.2771 27.2486 29.1974 27.0964 29.1691 26.9368L27.9234 28.1449C28.1441 28.2054 28.3356 28.3613 28.4314 28.5858L29.3183 30.6645C29.4847 31.0543 29.2993 31.5033 28.9043 31.6675C28.5092 31.8316 28.0542 31.6487 27.8879 31.2588L27.0009 29.1801C26.9861 29.1454 26.9741 29.1101 26.9647 29.0746L26.4864 29.5385C26.3346 29.6857 26.1283 29.7649 25.9157 29.7577C25.7031 29.7505 25.5028 29.6574 25.3617 29.5003C24.3714 28.3978 23.8727 27.224 23.787 26.0851L20.9167 29.0842C21.3475 29.4649 21.6186 30.0179 21.6186 30.6334C21.6186 31.4688 21.1193 32.1891 20.3991 32.5194V36.8112C21.433 36.9478 22.4216 37.3574 23.2142 38.0211C24.2114 38.856 24.8337 40.0476 24.8337 41.3551L36.7247 41.3551C37.1533 41.3551 37.5007 41.698 37.5007 42.121V58.4172C37.5007 59.4444 36.6569 60.2771 35.616 60.2771H33.1486V65.6431H41.0045L44.1833 55.84C42.4526 55.1006 41.2417 53.4 41.2417 51.4204C41.2417 48.7618 43.4257 46.6066 46.1197 46.6066H54.0721L49.6923 29.9506C49.632 29.7211 49.6827 29.4771 49.8296 29.2896C49.9766 29.1021 50.2033 28.9924 50.4435 28.9924H55.8758C56.1805 28.9924 56.4569 29.1682 56.5827 29.442C56.9952 30.3402 57.8896 30.8245 58.8056 30.8341C59.7122 30.8435 60.5538 30.3906 60.9189 29.4772C61.0358 29.1846 61.3221 28.9924 61.6408 28.9924H67.4058C67.6481 28.9924 67.8765 29.104 68.0232 29.2943C68.17 29.4845 68.2183 29.7315 68.1538 29.962L63.2297 47.5634C64.4188 48.4413 65.1885 49.8422 65.1885 51.4204C65.1885 53.4504 63.9152 55.1869 62.1137 55.8946L65.2749 65.6431H79.5505C83.8938 60.2846 86.6664 53.848 87.5586 47.0331C88.0804 43.0476 87.9469 39.026 87.1819 35.119H71.1752C70.1343 35.119 69.2905 34.2864 69.2905 33.2592V10.0653H69.3902C63.4986 6.58666 56.7553 4.74567 49.8768 4.74786C42.6557 4.75017 35.5848 6.78382 29.4931 10.6104C23.4013 14.437 18.5412 19.898 15.4824 26.3532ZM27.2727 42.8868V46.0596H12.4169V42.8868H18.5424C18.3852 43.1024 18.2927 43.3668 18.2927 43.6526C18.2927 44.3777 18.8883 44.9655 19.6231 44.9655C20.3578 44.9655 20.9534 44.3777 20.9534 43.6526C20.9534 43.3668 20.8609 43.1024 20.7038 42.8868H27.2727ZM23.2816 41.3551C23.2816 40.8128 23.1098 40.2852 22.7915 39.8235C22.6329 39.5936 22.4381 39.38 22.21 39.189C21.5239 38.6145 20.5934 38.2918 19.6231 38.2918C18.6528 38.2918 17.7222 38.6145 17.0361 39.189C16.808 39.38 16.6132 39.5936 16.4547 39.8235C16.1363 40.2852 15.9645 40.8128 15.9645 41.3551H23.2816ZM42.6341 65.6431H43.8072L46.8582 56.2342H46.1197C45.9753 56.2342 45.8323 56.2281 45.6911 56.2159L42.6341 65.6431ZM45.4368 65.6431H60.8426L57.7916 56.2342H48.4878L45.4368 65.6431ZM62.4722 65.6431H63.6452L60.5917 56.2264C60.4986 56.2316 60.4048 56.2342 60.3104 56.2342H59.4212L62.4722 65.6431ZM70.8426 33.2592V10.9673C71.2638 11.2423 71.679 11.5252 72.0878 11.8158H71.9512V31.8369C71.9512 32.2599 72.2987 32.6027 72.7273 32.6027H86.5974C86.6855 32.9299 86.7691 33.2582 86.8482 33.5874H71.1752C70.9915 33.5874 70.8426 33.4404 70.8426 33.2592ZM84.2854 26.3313C81.7866 21.0667 78.0894 16.4646 73.5033 12.8723V31.0711H86.1493C85.6393 29.4572 85.0174 27.8735 84.2854 26.3313ZM66.3864 30.524L61.8214 46.842C61.3456 46.6892 60.8378 46.6066 60.3104 46.6066H55.6756L51.4466 30.524H55.4119C56.1729 31.7353 57.5002 32.3522 58.7892 32.3657C60.0825 32.3791 61.4068 31.7832 62.1288 30.524H66.3864ZM46.1197 48.1383C44.2829 48.1383 42.7938 49.6077 42.7938 51.4204C42.7938 53.2331 44.2829 54.7026 46.1197 54.7026H60.3104C62.1473 54.7026 63.6364 53.2331 63.6364 51.4204C63.6364 49.6077 62.1473 48.1383 60.3104 48.1383H46.1197ZM29.9314 60.2771L31.5965 63.3514V60.2771H29.9314ZM19.6231 43.8715C19.7455 43.8715 19.8448 43.7735 19.8448 43.6526C19.8448 43.5318 19.7455 43.4338 19.6231 43.4338C19.5006 43.4338 19.4013 43.5318 19.4013 43.6526C19.4013 43.7735 19.5006 43.8715 19.6231 43.8715ZM26.0211 27.8422L31.2302 22.7904C29.6672 21.6855 27.7935 22.0246 26.5582 23.1206C25.8634 23.7372 25.4066 24.5697 25.3355 25.477C25.2795 26.1909 25.4584 27.001 26.0211 27.8422ZM19.5122 30.0864C19.206 30.0864 18.9579 30.3313 18.9579 30.6334C18.9579 30.9355 19.206 31.1805 19.5122 31.1805C19.8183 31.1805 20.0665 30.9355 20.0665 30.6334C20.0665 30.3313 19.8183 30.0864 19.5122 30.0864Z" fill="#F1EEE5"/>
<path fill-rule="evenodd" clip-rule="evenodd" d="M85.5042 65.6431C89.1401 60.257 91.4846 54.0999 92.3302 47.6415C93.3726 39.6789 92.0934 31.588 88.6424 24.3174C85.1913 17.0467 79.7116 10.8974 72.8454 6.5905C65.9792 2.28357 58.0112 -0.00259505 49.8753 2.21055e-06C41.7394 0.00259947 33.7729 2.29385 26.9095 6.60517C20.0462 10.9165 14.5704 17.0692 11.1242 24.3421C7.67791 31.615 6.40396 39.7066 7.45165 47.6686C8.30023 54.1174 10.6434 60.2647 14.2741 65.6431H2.66075C1.19126 65.6431 0 66.4904 0 67.9406C0 69.3907 1.19125 70.2381 2.66075 70.2381H97.3392C98.8087 70.2381 100 69.3907 100 67.9406C100 66.4904 98.8087 65.6431 97.3392 65.6431H85.5042ZM2.66075 68.4876C2.17092 68.4876 1.77384 68.424 1.77384 67.9406C1.77384 67.4572 2.17092 67.3936 2.66075 67.3936H17.7575C17.601 67.199 17.4464 67.0031 17.2937 66.8059C16.9973 66.423 16.7082 66.0354 16.4263 65.6431C12.5604 60.2623 10.0756 54.0161 9.21071 47.4431C8.20645 39.8113 9.4276 32.055 12.731 25.0836C16.0344 18.1122 21.2832 12.2145 27.862 8.08186C34.4409 3.94925 42.0772 1.75297 49.8759 1.75048C57.6745 1.74799 65.3123 3.9394 71.8938 8.06781C78.4754 12.1962 83.728 18.0905 87.036 25.0599C90.344 32.0292 91.5702 39.7846 90.571 47.4172C89.7092 53.9994 87.2231 60.255 83.3519 65.6431C83.0752 66.0283 82.7914 66.409 82.5006 66.7851C82.3427 66.9893 82.1828 67.1921 82.0208 67.3936H97.3392C97.8291 67.3936 98.2262 67.4572 98.2262 67.9406C98.2262 68.424 97.8291 68.4876 97.3392 68.4876H2.66075Z" fill="#F1EEE5"/>
<path d="M3.70814 83.3334H1.6804C1.50802 83.3334 1.381 83.2981 1.29935 83.2276C1.22677 83.1482 1.19048 83.0247 1.19048 82.8572V74.2858C1.19048 74.1182 1.22677 73.9992 1.29935 73.9286C1.381 73.8493 1.50802 73.8096 1.6804 73.8096H3.87145C4.01661 73.8096 4.13455 73.8404 4.22528 73.9022C4.32508 73.9639 4.41581 74.0653 4.49746 74.2064L5.72227 76.3625C5.76763 76.4418 5.80392 76.4992 5.83114 76.5344C5.86743 76.5697 5.91279 76.5873 5.96723 76.5873H6.08971C6.14415 76.5873 6.18497 76.5697 6.21219 76.5344C6.24848 76.4992 6.28931 76.4418 6.33467 76.3625L7.54587 74.2064C7.62753 74.0653 7.71372 73.9639 7.80444 73.9022C7.90424 73.8404 8.02672 73.8096 8.17189 73.8096H10.3765C10.5489 73.8096 10.6714 73.8493 10.744 73.9286C10.8256 73.9992 10.8665 74.1182 10.8665 74.2858V82.8572C10.8665 83.0247 10.8256 83.1482 10.744 83.2276C10.6714 83.2981 10.5489 83.3334 10.3765 83.3334H8.28076C8.10838 83.3334 7.98136 83.2981 7.89971 83.2276C7.82712 83.1482 7.79083 83.0247 7.79083 82.8572V78.2011L6.9879 79.6429C6.90625 79.7928 6.80645 79.903 6.68851 79.9736C6.57963 80.0353 6.43901 80.0662 6.26663 80.0662H5.72227C5.54989 80.0662 5.40472 80.0353 5.28678 79.9736C5.17791 79.903 5.08265 79.7928 5.00099 79.6429L4.19806 78.2011V82.8572C4.19806 83.0247 4.15723 83.1482 4.07558 83.2276C4.003 83.2981 3.88052 83.3334 3.70814 83.3334Z" fill="#F1EEE5"/>
<path d="M17.7068 83.3334H15.5021C15.3298 83.3334 15.2027 83.2981 15.1211 83.2276C15.0485 83.1482 15.0122 83.0247 15.0122 82.8572V81.1641L12.93 78.4524C12.7214 78.1791 12.5807 77.941 12.5082 77.7381C12.4446 77.5353 12.4129 77.2311 12.4129 76.8254V74.2858C12.4129 74.1182 12.4492 73.9992 12.5218 73.9286C12.6034 73.8493 12.7304 73.8096 12.9028 73.8096H14.9986C15.171 73.8096 15.2935 73.8493 15.366 73.9286C15.4477 73.9992 15.4885 74.1182 15.4885 74.2858V76.4551C15.4885 76.5433 15.4931 76.6358 15.5021 76.7329C15.5112 76.8299 15.5475 76.9224 15.611 77.0106L16.237 77.963C16.2824 78.0424 16.3277 78.0997 16.3731 78.135C16.4275 78.1702 16.4911 78.1879 16.5636 78.1879H16.6997C16.7723 78.1879 16.8313 78.1702 16.8766 78.135C16.9311 78.0997 16.981 78.0424 17.0263 77.963L17.6524 77.0106C17.7159 76.9224 17.7522 76.8299 17.7612 76.7329C17.7703 76.6358 17.7748 76.5433 17.7748 76.4551V74.2858C17.7748 74.1182 17.8111 73.9992 17.8837 73.9286C17.9654 73.8493 18.0924 73.8096 18.2648 73.8096H20.2925C20.4649 73.8096 20.5874 73.8493 20.6599 73.9286C20.7416 73.9992 20.7824 74.1182 20.7824 74.2858V76.8254C20.7824 77.2311 20.7461 77.5353 20.6735 77.7381C20.601 77.941 20.4649 78.1791 20.2653 78.4524L18.1967 81.1773V82.8572C18.1967 83.0247 18.1559 83.1482 18.0742 83.2276C18.0016 83.2981 17.8792 83.3334 17.7068 83.3334Z" fill="#F1EEE5"/>
<path d="M27.7764 83.3334H25.7486C25.5763 83.3334 25.4492 83.2981 25.3676 83.2276C25.295 83.1482 25.2587 83.0247 25.2587 82.8572V74.2858C25.2587 74.1182 25.295 73.9992 25.3676 73.9286C25.4492 73.8493 25.5763 73.8096 25.7486 73.8096H27.9397C28.0848 73.8096 28.2028 73.8404 28.2935 73.9022C28.3933 73.9639 28.484 74.0653 28.5657 74.2064L29.7905 76.3625C29.8359 76.4418 29.8722 76.4992 29.8994 76.5344C29.9357 76.5697 29.981 76.5873 30.0355 76.5873H30.1579C30.2124 76.5873 30.2532 76.5697 30.2804 76.5344C30.3167 76.4992 30.3575 76.4418 30.4029 76.3625L31.6141 74.2064C31.6958 74.0653 31.782 73.9639 31.8727 73.9022C31.9725 73.8404 32.095 73.8096 32.2401 73.8096H34.4448C34.6172 73.8096 34.7396 73.8493 34.8122 73.9286C34.8939 73.9992 34.9347 74.1182 34.9347 74.2858V82.8572C34.9347 83.0247 34.8939 83.1482 34.8122 83.2276C34.7396 83.2981 34.6172 83.3334 34.4448 83.3334H32.349C32.1766 83.3334 32.0496 83.2981 31.9679 83.2276C31.8954 83.1482 31.8591 83.0247 31.8591 82.8572V78.2011L31.0561 79.6429C30.9745 79.7928 30.8747 79.903 30.7567 79.9736C30.6479 80.0353 30.5072 80.0662 30.3349 80.0662H29.7905C29.6181 80.0662 29.473 80.0353 29.355 79.9736C29.2461 79.903 29.1509 79.7928 29.0692 79.6429L28.2663 78.2011V82.8572C28.2663 83.0247 28.2255 83.1482 28.1438 83.2276C28.0712 83.2981 27.9488 83.3334 27.7764 83.3334Z" fill="#F1EEE5"/>
<path d="M37.0799 83.3334C36.9075 83.3334 36.7805 83.2981 36.6989 83.2276C36.6263 83.1482 36.59 83.0247 36.59 82.8572V81.2831C36.59 81.1156 36.6263 80.9965 36.6989 80.926C36.7805 80.8466 36.9075 80.8069 37.0799 80.8069H38.4272V76.3625H37.0799C36.9075 76.3625 36.7805 76.3272 36.6989 76.2567C36.6263 76.1773 36.59 76.0538 36.59 75.8863V74.2858C36.59 74.1182 36.6263 73.9992 36.6989 73.9286C36.7805 73.8493 36.9075 73.8096 37.0799 73.8096H42.8774C43.0497 73.8096 43.1722 73.8493 43.2448 73.9286C43.3264 73.9992 43.3673 74.1182 43.3673 74.2858V75.8863C43.3673 76.0538 43.3264 76.1773 43.2448 76.2567C43.1722 76.3272 43.0497 76.3625 42.8774 76.3625H41.5573V80.8069H42.8774C43.0497 80.8069 43.1722 80.8466 43.2448 80.926C43.3264 80.9965 43.3673 81.1156 43.3673 81.2831V82.8572C43.3673 83.0247 43.3264 83.1482 43.2448 83.2276C43.1722 83.2981 43.0497 83.3334 42.8774 83.3334H37.0799Z" fill="#F1EEE5"/>
<path d="M47.5788 83.3334H45.5375C45.3651 83.3334 45.2381 83.2981 45.1564 83.2276C45.0838 83.1482 45.0476 83.0247 45.0476 82.8572V74.2858C45.0476 74.1182 45.0838 73.9992 45.1564 73.9286C45.2381 73.8493 45.3651 73.8096 45.5375 73.8096H46.9528C47.1252 73.8096 47.2704 73.836 47.3883 73.8889C47.5153 73.9418 47.6378 74.0344 47.7557 74.1667L50.3959 77.1032V74.2858C50.3959 74.1182 50.4322 73.9992 50.5048 73.9286C50.5864 73.8493 50.7134 73.8096 50.8858 73.8096H52.9272C53.0995 73.8096 53.222 73.8493 53.2946 73.9286C53.3763 73.9992 53.4171 74.1182 53.4171 74.2858V82.8572C53.4171 83.0247 53.3763 83.1482 53.2946 83.2276C53.222 83.2981 53.0995 83.3334 52.9272 83.3334H50.8858C50.7134 83.3334 50.5864 83.2981 50.5048 83.2276C50.4322 83.1482 50.3959 83.0247 50.3959 82.8572V81.2302L48.0688 78.4921V82.8572C48.0688 83.0247 48.0279 83.1482 47.9463 83.2276C47.8737 83.2981 47.7512 83.3334 47.5788 83.3334Z" fill="#F1EEE5"/>
<path d="M55.5663 83.3334C55.394 83.3334 55.267 83.2981 55.1853 83.2276C55.1127 83.1482 55.0764 83.0247 55.0764 82.8572V81.2831C55.0764 81.1156 55.1127 80.9965 55.1853 80.926C55.267 80.8466 55.394 80.8069 55.5663 80.8069H56.9136V76.3625H55.5663C55.394 76.3625 55.267 76.3272 55.1853 76.2567C55.1127 76.1773 55.0764 76.0538 55.0764 75.8863V74.2858C55.0764 74.1182 55.1127 73.9992 55.1853 73.9286C55.267 73.8493 55.394 73.8096 55.5663 73.8096H61.3638C61.5362 73.8096 61.6586 73.8493 61.7312 73.9286C61.8129 73.9992 61.8537 74.1182 61.8537 74.2858V75.8863C61.8537 76.0538 61.8129 76.1773 61.7312 76.2567C61.6586 76.3272 61.5362 76.3625 61.3638 76.3625H60.0437V80.8069H61.3638C61.5362 80.8069 61.6586 80.8466 61.7312 80.926C61.8129 80.9965 61.8537 81.1156 61.8537 81.2831V82.8572C61.8537 83.0247 61.8129 83.1482 61.7312 83.2276C61.6586 83.2981 61.5362 83.3334 61.3638 83.3334H55.5663Z" fill="#F1EEE5"/>
<path d="M74.0076 83.3334H67.0806C66.9082 83.3334 66.7812 83.2981 66.6996 83.2276C66.627 83.1482 66.5907 83.0247 66.5907 82.8572V74.2858C66.5907 74.1182 66.627 73.9992 66.6996 73.9286C66.7812 73.8493 66.9082 73.8096 67.0806 73.8096H69.19C69.3624 73.8096 69.4849 73.8493 69.5575 73.9286C69.6391 73.9992 69.6799 74.1182 69.6799 74.2858V80.8334H71.5444V78.6905C71.5444 78.523 71.5806 78.4039 71.6532 78.3334C71.7349 78.254 71.8619 78.2143 72.0343 78.2143H74.0076C74.18 78.2143 74.3024 78.254 74.375 78.3334C74.4567 78.4039 74.4975 78.523 74.4975 78.6905V82.8572C74.4975 83.0247 74.4567 83.1482 74.375 83.2276C74.3024 83.2981 74.18 83.3334 74.0076 83.3334Z" fill="#F1EEE5"/>
<path d="M76.3254 83.3334C76.153 83.3334 76.026 83.2981 75.9443 83.2276C75.8717 83.1482 75.8354 83.0247 75.8354 82.8572V81.2831C75.8354 81.1156 75.8717 80.9965 75.9443 80.926C76.026 80.8466 76.153 80.8069 76.3254 80.8069H77.6727V76.3625H76.3254C76.153 76.3625 76.026 76.3272 75.9443 76.2567C75.8717 76.1773 75.8354 76.0538 75.8354 75.8863V74.2858C75.8354 74.1182 75.8717 73.9992 75.9443 73.9286C76.026 73.8493 76.153 73.8096 76.3254 73.8096H82.1228C82.2952 73.8096 82.4177 73.8493 82.4902 73.9286C82.5719 73.9992 82.6127 74.1182 82.6127 74.2858V75.8863C82.6127 76.0538 82.5719 76.1773 82.4902 76.2567C82.4177 76.3272 82.2952 76.3625 82.1228 76.3625H80.8027V80.8069H82.1228C82.2952 80.8069 82.4177 80.8466 82.4902 80.926C82.5719 80.9965 82.6127 81.1156 82.6127 81.2831V82.8572C82.6127 83.0247 82.5719 83.1482 82.4902 83.2276C82.4177 83.2981 82.2952 83.3334 82.1228 83.3334H76.3254Z" fill="#F1EEE5"/>
<path d="M86.8923 83.3334H84.7829C84.6105 83.3334 84.4835 83.2981 84.4019 83.2276C84.3293 83.1482 84.293 83.0247 84.293 82.8572V74.2858C84.293 74.1182 84.3293 73.9992 84.4019 73.9286C84.4835 73.8493 84.6105 73.8096 84.7829 73.8096H90.8525C91.0249 73.8096 91.1474 73.8493 91.22 73.9286C91.3016 73.9992 91.3425 74.1182 91.3425 74.2858V75.8598C91.3425 76.0274 91.3016 76.1508 91.22 76.2302C91.1474 76.3008 91.0249 76.336 90.8525 76.336H87.3822V77.7117H89.7502C89.9226 77.7117 90.0451 77.7514 90.1176 77.8307C90.1993 77.9013 90.2401 78.0203 90.2401 78.1879V79.7752C90.2401 79.9427 90.1993 80.0662 90.1176 80.1455C90.0451 80.2161 89.9226 80.2514 89.7502 80.2514H87.3822V82.8572C87.3822 83.0247 87.3414 83.1482 87.2598 83.2276C87.1872 83.2981 87.0647 83.3334 86.8923 83.3334Z" fill="#F1EEE5"/>
<path d="M99.5101 83.3334H93.1955C93.0231 83.3334 92.8961 83.2981 92.8145 83.2276C92.7419 83.1482 92.7056 83.0247 92.7056 82.8572V74.2858C92.7056 74.1182 92.7419 73.9992 92.8145 73.9286C92.8961 73.8493 93.0231 73.8096 93.1955 73.8096H99.5101C99.6825 73.8096 99.8049 73.8493 99.8775 73.9286C99.9592 73.9992 100 74.1182 100 74.2858V75.8334C100 76.0009 99.9592 76.1244 99.8775 76.2037C99.8049 76.2743 99.6825 76.3096 99.5101 76.3096H95.754V77.3281H98.4078C98.5801 77.3281 98.7026 77.3678 98.7752 77.4471C98.8568 77.5177 98.8977 77.6367 98.8977 77.8043V79.2196C98.8977 79.3872 98.8568 79.5106 98.7752 79.59C98.7026 79.6605 98.5801 79.6958 98.4078 79.6958H95.754V80.8334H99.5101C99.6825 80.8334 99.8049 80.8731 99.8775 80.9524C99.9592 81.023 100 81.142 100 81.3096V82.8572C100 83.0247 99.9592 83.1482 99.8775 83.2276C99.8049 83.2981 99.6825 83.3334 99.5101 83.3334Z" fill="#F1EEE5"/>
</svg>
