<svg width="37" height="37" viewBox="0 0 37 37" fill="none" xmlns="http://www.w3.org/2000/svg">
<g clip-path="url(#clip0_137_1231)">
<path fill-rule="evenodd" clip-rule="evenodd" d="M18.5 37C28.7173 37 37 28.7173 37 18.5C37 8.28271 28.7173 0 18.5 0C8.28275 0 0 8.28271 0 18.5C0 28.7173 8.28275 37 18.5 37ZM23.9668 6C23.9664 7.44086 24.495 8.83282 25.4541 9.91669C27.3622 12.0972 30 11.9722 30 11.9722V16.2639C27.8356 16.2676 25.7249 15.597 23.9668 14.3472V23.0833C23.9668 27.4583 20.389 31 15.9834 31C11.8724 31 8 27.7083 8 23.0833C8 18.3333 12.2372 14.6111 17.0778 15.25V19.6389C14.6786 18.9028 12.3495 20.6945 12.3495 23.0833C12.3495 25.0833 14.0051 26.6945 15.9974 26.6945C16.9395 26.6943 17.8448 26.3323 18.5226 25.6846C19.2005 25.037 19.5979 24.1542 19.6314 23.2222V6H23.9668Z" fill="#F1EEE5"/>
</g>
<defs>
<clipPath id="clip0_137_1231">
<rect width="37" height="37" fill="white"/>
</clipPath>
</defs>
</svg>
