<svg width="42" height="47" viewBox="0 0 42 47" fill="none" xmlns="http://www.w3.org/2000/svg">
<path d="M41.9697 33.1251C41.9797 32.8812 41.949 32.6373 41.8787 32.4032L37.212 18.6962C37.0579 18.2412 36.7612 17.8452 36.3641 17.5647C35.967 17.2841 35.4897 17.1333 35 17.1336H25.6667V21.7026H33.3177L37.2073 33.1251H4.79267L8.68233 21.7026H16.3333V17.1336H7C6.51031 17.1333 6.03298 17.2841 5.63587 17.5647C5.23875 17.8452 4.94207 18.2412 4.788 18.6962L0.121333 32.4032C0.0510099 32.6373 0.0202709 32.8812 0.0303334 33.1251C2.6077e-08 33.1251 0 44.5475 0 44.5475C0 45.1534 0.245833 45.7344 0.683417 46.1629C1.121 46.5913 1.71449 46.832 2.33333 46.832H39.6667C40.2855 46.832 40.879 46.5913 41.3166 46.1629C41.7542 45.7344 42 45.1534 42 44.5475C42 44.5475 42 33.1251 41.9697 33.1251ZM30.3333 14.6299C30.9377 14.6299 31.542 14.4128 31.983 13.9833C32.4204 13.5549 32.6662 12.974 32.6662 12.3682C32.6662 11.7624 32.4204 11.1815 31.983 10.7531L21 0L10.017 10.7531C9.57957 11.1815 9.33383 11.7624 9.33383 12.3682C9.33383 12.974 9.57957 13.5549 10.017 13.9833C10.458 14.4151 11.0623 14.6299 11.6667 14.6299C12.271 14.6299 12.8753 14.4151 13.3163 13.9833L18.6667 8.74502V23.9871C18.6667 24.593 18.9125 25.1741 19.3501 25.6025C19.7877 26.0309 20.3812 26.2716 21 26.2716C21.6188 26.2716 22.2123 26.0309 22.6499 25.6025C23.0875 25.1741 23.3333 24.593 23.3333 23.9871V8.74502L28.6837 13.9833C29.1245 14.4041 29.7177 14.6366 30.3333 14.6299Z" fill="black"/>
</svg>
